<svg width="960" height="960" viewBox="0 0 960 960" fill="none" xmlns="http://www.w3.org/2000/svg">
<g clip-path="url(#clip0_9268_39395)">
<rect width="960" height="960" fill="#F2653B"/>
<path d="M1210.69 1704.22C1238.65 1640.45 1188.99 1557.12 1113.88 1553.83C1064.9 1551.7 1015.44 1552.94 966.582 1557.16C908.714 1562.15 851.078 1562.16 793.22 1560.03C767.89 1559.1 742.507 1558.95 717.166 1559.24C638.748 1560.16 560.362 1560.16 482.606 1548.14C465.702 1545.53 449.249 1541.21 432.429 1538.43C415.104 1535.57 396.151 1535.02 381.779 1523.62C376.357 1519.32 372.081 1513.77 367.963 1508.22C362.468 1500.83 357.142 1493.3 351.983 1485.67C371.357 1472.95 397.128 1469.21 419.947 1469.78C479.307 1471.26 538.635 1473.9 597.964 1476.23C602.702 1476.42 607.388 1477.52 612.126 1477.95C720.707 1487.61 828.72 1485.3 936.755 1470.56C991.86 1463.04 1047.5 1451.57 1090.6 1414.29C1121.53 1387.54 1123.33 1334.91 1094.07 1311.13C1062.44 1285.42 1026.32 1270.82 984.821 1271.38C964.208 1271.66 943.563 1272.43 923.003 1271.54C898.66 1270.49 891.127 1260.46 893.165 1233.89C923.108 1233.89 953.124 1233.47 983.119 1234C1015.99 1234.59 1047.96 1230.17 1078.83 1218.84C1144.92 1194.58 1179.86 1133.92 1166.92 1068.02C1163.87 1052.45 1154.89 1041.46 1142.42 1035.42C1124.16 1026.58 1104.53 1017.19 1084.81 1015.4C1042.32 1011.56 999.414 1012.35 956.675 1011.37C946.61 1011.14 936.534 1011.33 927.121 1011.33C921.343 988.436 923.927 983.068 941.556 980.845C957.263 978.863 973.138 978.15 988.897 976.556C1054.23 969.94 1113.73 965.295 1170.02 927.212C1200.06 906.892 1226.49 879.536 1234.77 843.383C1244.31 801.704 1227.34 768.465 1188.21 754.373C1169.69 747.704 1150.04 744.202 1131.05 738.74C1116.66 734.598 1101.94 730.886 1088.39 724.742C1068.04 715.525 1066.79 702.89 1084.52 689.406C1097.09 679.854 1110.66 671.497 1124.32 663.55C1161.06 642.17 1185.37 610.117 1209.21 575.704C1216.54 565.114 1223.92 554.44 1229.04 542.623C1237.26 523.592 1239.94 501.908 1241.76 481.41C1245.72 437.036 1231.67 399.509 1198.96 368.294C1154.64 326.028 1091.67 309.346 1033.18 297.183C965.573 283.122 894.751 289.98 828.332 269.292C809.505 263.421 790.993 255.158 776.515 241.789C735.93 204.315 748.128 127.5 748.128 77.9149C747.876 57.3427 752.95 50.6741 776.337 44.6451C783.46 97.7426 785.267 155.695 828.783 193.61C857.182 218.355 904.06 234.638 940.327 219.414C974.735 204.965 994.35 170.395 989.958 133.277C986.617 105.009 990.368 99.955 1018.3 95.5721C1022.99 94.8382 1027.76 94.576 1032.5 94.1776C1063.32 91.5982 1094.44 90.665 1124.56 82.801C1179.32 68.4991 1238.06 21.2 1214.93 -42.5401C1208.83 -59.3165 1199.89 -74.4153 1183.16 -82.3632C1170.56 -88.3503 1156.45 -90.2376 1142.56 -91.5064C1112.45 -94.2745 1082.11 -94.5261 1051.95 -92.2508C1036.89 -91.1184 1019.34 -90.2796 1009.36 -101.593C999.487 -112.802 1003.1 -127.492 1004.2 -140.829C1005.54 -156.84 1005.83 -201.812 1005.3 -217.875C1004.97 -227.574 1001.76 -238.248 996.661 -246.531C974.451 -282.601 937.785 -294.145 898.996 -295.697C809.694 -299.283 720.328 -300.279 630.963 -300.992C543.962 -301.684 457.538 -307.419 370.6 -307.398C336.056 -307.388 301.522 -306.518 267.009 -305.029C248.844 -304.242 230.732 -301.715 212.661 -299.388C165.961 -293.39 129.095 -270.438 102.819 -231.957C87.491 -209.508 81.3554 -154.208 93.3534 -129.39C106.36 -102.474 131.743 -86.2532 161.37 -82.9189C236.93 -74.3944 312.659 -66.6877 388.944 -69.1412C400.826 -69.5187 412.73 -69.0469 424.612 -69.3195C437.23 -69.6026 445.961 -65.3141 448.104 -50.7501C436.032 -39.3735 420.347 -39.3525 405.806 -39.1848C367.784 -38.7444 329.689 -38.8702 291.73 -40.7366C237.918 -43.3789 184.2 -50.7186 130.44 -50.7501C44.9516 -50.813 -40.5684 -47.2794 -126.015 -43.7039C-165.518 -42.0473 -205.084 -38.1782 -244.23 -32.5895C-288.85 -26.2145 -329.645 -8.47338 -364.862 19.7949C-410.752 56.6402 -405.258 119.929 -354.576 147.495C-349.06 150.494 -343.051 153.419 -336.947 154.374C-313.56 158.054 -290.068 161.22 -266.556 164.01C-248.485 166.149 -230.267 167.04 -212.218 169.305C-204.065 170.322 -195.313 172.02 -191.269 181.09C-190.985 181.709 -213.983 199.607 -216.494 202.302C-222.377 208.614 -226.475 215.524 -229.837 223.451C-240.416 248.353 -254.053 280.155 -245.512 307.322C-240.9 321.97 -230.057 334.018 -217.597 343.035C-202.405 354.034 -168.344 361.437 -160.317 379.43C-159.34 381.621 -158.962 384.547 -160.769 386.13C-161.631 386.885 -162.807 387.147 -163.932 387.378C-182.717 391.236 -201.785 393.763 -220.36 398.544C-266.776 410.508 -300.606 441.335 -316.071 486.768C-326.304 516.818 -318.887 555.037 -295.384 577.34C-280.991 591.002 -261.229 597.324 -241.919 601.99C-195.723 613.157 -149.801 614.3 -102.439 613.975C-70.9312 613.755 -31.0079 613.933 -3.78644 632.125C-9.7119 644.676 -31.0603 645.19 -43.2054 645.494C-91.0819 646.668 -137.761 653.232 -182.223 672.535C-205.872 682.801 -227.189 696.043 -244.314 715.127C-275.402 749.77 -261.838 805.835 -223.207 828.777C-183.736 852.211 -127.223 855.367 -82.4984 860.191C-23.8742 866.513 35.1493 867.425 94.0573 868.705C143.562 869.774 193.74 870.917 242.572 861.333C291.751 851.687 337.663 828.252 379.142 800.697C416.796 775.711 430.222 737.628 422.837 692.866C416.501 654.417 385.508 643.009 354.736 631.475C353.254 630.919 351.71 630.458 350.145 630.248C324.762 626.914 304.989 612.675 284.691 598.509C270.55 588.643 261.735 577.35 261.62 558.98C266.369 553.695 271.737 547.97 276.822 542.025C308.151 505.41 300.923 440.758 247.72 416.338C223.924 405.423 199.35 402.099 173.799 402.13C157.157 402.151 140.515 402.151 123.863 402.109C84.0554 402.005 91.8825 309.577 95.5597 284.003C95.7383 282.724 96.0009 281.329 96.978 280.48C97.7555 279.799 98.8481 279.62 99.8777 279.474C163.724 270.152 229.019 283.447 293.17 276.527C319.435 273.696 347.886 265.78 362.416 243.761C373.615 226.785 374.046 205.112 373.332 184.802C373.237 182.065 373.216 179.024 375.013 176.948C376.126 175.659 377.776 174.967 379.373 174.348C420.735 158.431 467.341 168.141 509.47 181.877C514.65 183.565 519.966 185.4 524.011 189.048C530.451 194.857 532.395 204.032 533.886 212.567C534.979 218.848 535.977 225.548 533.456 231.409C530.451 238.392 523.002 242.576 515.522 244.002C508.041 245.428 500.351 244.589 492.744 244.348C458.494 243.236 423.971 254.655 397.17 275.95C347.487 315.417 317.607 409.91 379.646 452.586C403.096 468.712 429.781 475.485 458.116 476.198C542.071 478.327 626.088 479.281 709.969 483.066C770.874 485.813 831.62 492.293 892.43 497.169C906.813 498.322 918.044 504.184 923.643 518.79C893.344 536.803 860.848 544.762 826.052 544.279C789.596 543.776 753.139 543.189 716.693 543.325C692.939 543.409 669.038 543.294 645.472 545.758C587.447 551.829 542.638 580.37 511.845 629.745C491.83 661.84 487.922 720.831 533.813 752.454C562.432 772.177 593.887 780.869 626.278 786.353C661.294 792.288 697.183 792.969 732.631 796.524C744.388 797.698 756.123 800.057 767.564 803.025C776.725 805.405 783.376 810.794 778.427 825.4C771.136 825.4 762.689 825.463 754.242 825.39C705.095 824.97 655.936 825.012 606.799 823.943C561.108 822.947 519.808 834.91 480.242 857.978C429.025 887.84 407.077 931.491 414.148 988.751C417.037 1012.14 425.736 1033.61 444.92 1048.4C465.281 1064.1 491.263 1068.29 515.942 1072.5C541.882 1076.92 567.065 1082.64 593.173 1086.2C601.451 1087.33 607.923 1090.11 611.369 1098.93C623.042 1128.82 607.703 1163.63 576.836 1173.01C495.507 1197.71 410.607 1203.59 326.096 1211.24C238.916 1219.11 151.536 1226 65.0078 1239.56C41.7262 1243.21 20.6194 1249.12 -1.92683 1255.64C-43.3105 1267.63 -74.6189 1292.15 -87.9722 1333.64C-102.754 1379.56 -100.611 1416.56 -60.32 1440.05C-51.5684 1445.14 -41.661 1448.5 -31.9744 1451.7C-20.7223 1455.42 -8.88188 1457.43 2.22311 1461.52C7.06644 1463.3 10.7015 1468.37 14.8725 1471.94C13.9584 1474.21 13.0444 1476.47 12.1304 1478.74C2.19158 1480.73 -7.67372 1483.69 -17.7176 1484.54C-68.1576 1488.81 -118.629 1492.7 -169.122 1496.42C-205.252 1499.08 -239.502 1508.16 -270.527 1526.96C-301.93 1546 -315.756 1588.98 -298.652 1617.85C-284.332 1642.03 -264.381 1660.4 -236.035 1669.34C-196.847 1681.69 -156.819 1683.3 -116.328 1684.29C-101.609 1684.65 -86.7219 1688.79 -72.4441 1693.02C-61.5597 1696.25 -52.8921 1703 -53.2809 1716.78C-54.1634 1748.08 -30.8082 1774.07 8.15904 1781.63C59.2714 1791.55 109.365 1799.97 161.591 1801.29C215.855 1802.66 270.088 1799.44 324.278 1797.21C451.97 1791.97 579.557 1794.64 707.259 1796.11C843.03 1797.67 986.911 1803.16 1119.44 1768.77C1142.56 1762.77 1165.9 1754.84 1184.09 1739.39C1196.37 1728.99 1205.09 1717 1210.69 1704.22ZM1093.81 1662.88C1089.31 1664.49 1084.61 1665.63 1079.93 1666.51C1051.38 1671.91 1022.6 1678.51 993.488 1680.01C917.581 1683.9 841.496 1684.61 765.463 1685.84C717.135 1686.63 668.722 1687.62 620.447 1685.76C537.837 1682.58 455.984 1692.16 373.794 1696.42C278.241 1701.38 182.761 1698.38 87.1022 1696.75C77.0899 1696.58 66.7413 1696.34 57.6115 1692.23C39.1312 1683.91 37.1035 1655.38 23.0147 1640.66C7.11895 1624.06 -14.198 1613.8 -35.1578 1605.11C-54.4996 1597.09 -75.4173 1592.83 -95.7887 1583.06C-34.1282 1576.99 24.328 1579.48 78.067 1543.12C85.81 1537.88 93.3324 1531.98 98.5854 1524.26C125.891 1484.1 100.897 1416.96 64.8082 1391.07C48.8914 1379.66 30.0434 1373.07 11.1638 1367.81C9.81906 1367.44 8.28516 1366.9 7.81239 1365.59C7.4867 1364.66 7.81237 1363.64 8.19059 1362.72C11.9098 1353.54 18.6862 1348.06 28.1943 1345.5C44.9726 1341 61.6669 1335.11 78.7709 1333.09C117.98 1328.44 157.43 1325.87 196.765 1322.26C224.344 1319.72 251.923 1317.16 279.438 1314.01C332.956 1307.9 386.349 1300.56 439.941 1295.26C475.682 1291.72 511.372 1286.12 546.756 1279.54C582.068 1272.98 617.379 1261.94 646.092 1239.68C668.229 1222.52 700.01 1191.36 706.082 1163.25C714.014 1126.54 709.392 1091.2 694.557 1056.85C679.649 1022.33 653.835 1002 616.202 996.782C593.477 993.626 570.795 990.114 548.185 986.203C535.82 984.064 523.653 980.75 511.456 977.982C506.098 958.249 513.788 946.096 528.476 936.67C551.926 921.634 577.813 915.962 605.339 916.056C648.929 916.192 692.529 916.434 736.119 916.14C769.623 915.92 802.487 912.585 832.271 894.802C865.261 875.111 881.556 846.308 872.678 805.887C861.636 755.6 820.725 730.53 773.647 718.608C716.284 704.075 658.006 695.781 602.618 674.15C616.339 645.599 649.402 641.101 677.453 640.765C728.156 640.167 778.879 644.655 829.55 642.684C880.221 640.723 931.828 631.873 975.796 606.646C992.931 596.821 1008.86 584.438 1020.68 568.626C1033.94 550.896 1043.75 526.266 1037.18 504.152C1026.7 468.817 1003.34 445.697 976.857 421.696C951.327 398.565 922.004 399.289 888.5 395.703C800.249 386.266 711.577 380.73 622.831 379.115C564.26 378.046 505.656 378.696 447.127 381.045C446.486 362.674 463.401 347.942 480.988 342.522C498.586 337.101 517.476 338.065 535.589 334.741C572.402 327.978 605.192 302.269 620.478 268.16C635.765 234.051 633.117 192.519 613.618 160.623C581.07 107.368 512.454 89.3019 450.121 84.5626C411.458 81.6162 371.062 82.3082 336.066 98.9589C301.07 115.609 272.977 151.857 276.623 190.38C218.587 190.999 160.561 192.823 102.599 195.843C73.7384 197.342 42.4091 200.142 21.1342 219.665C-6.81217 245.312 -6.33942 288.69 -3.77592 326.49C-0.666103 372.31 4.32429 422.461 36.9774 454.819C73.6859 491.203 131.68 492.021 183.391 490.521C150.024 530.974 156.926 594.221 188.213 636.298C219.501 678.365 269.636 702.45 320.076 717.004C262.46 769.923 177.865 779.989 99.5625 779.653C22.9517 779.328 -53.6171 771.558 -128.725 756.481C-83.6121 741.329 -34.4118 742.252 11.0587 728.212C56.5398 714.173 101.38 676.688 98.8586 629.242C97.0515 595.311 70.7337 566.592 40.0242 551.934C9.31474 537.275 -25.4291 534.035 -59.3324 531.016C-113.429 526.203 -167.525 521.39 -221.621 516.567C-218.952 493.405 -194.641 479.092 -171.906 473.692C-149.181 468.293 -124.523 467.695 -104.719 455.322C-76.6466 437.78 -66.4661 399.352 -75.701 367.602C-84.9359 335.853 -110.14 310.709 -138.801 294.142C-146.744 289.55 -155.6 284.863 -159.109 276.401C-168.302 254.214 -136.08 239.996 -118.944 223.157C-95.3265 199.953 -100.706 157.96 -122.979 133.476C-145.252 108.993 -179.197 98.7491 -211.997 94.0098C-244.797 89.2809 -278.459 88.914 -310.177 79.3514C-279.94 54.669 -240.017 45.746 -201.417 39.8114C-12.8637 10.8195 179.231 35.2817 369.991 38.3959C403.988 38.9516 439.037 38.6265 470.44 25.5828C501.832 12.5392 529.012 -16.3059 529.842 -50.2363C530.787 -88.8431 497.535 -121.347 460.848 -133.636C424.171 -145.925 384.405 -142.916 345.721 -141.909C284.607 -140.315 223.356 -144.08 162.904 -153.139C166.697 -174.959 185.492 -220.266 206.273 -228.025C227.055 -235.784 249.769 -236.077 271.958 -236.172C477.269 -237.105 682.527 -229.503 887.702 -221.891C899.143 -221.471 912.034 -220.36 919.294 -211.531C929.905 -198.624 921.427 -151.293 917.791 -135.01C907.443 -88.5914 944.288 -42.1626 988.645 -24.799C1032.99 -7.43534 1082.51 -11.8287 1129.92 -16.4841C1094.28 30.1229 1019.35 10.117 965.248 32.954C929.023 48.252 908.651 81.029 901.433 118.252C901.255 119.185 901.034 120.181 900.32 120.8C899.343 121.649 897.861 121.45 896.611 121.114C884.214 117.822 875.399 106.299 871.775 94.0203C867.141 78.3553 870.629 62.2289 868.118 46.3437C865.744 31.2973 859.955 17.0898 851.288 4.54937C834.425 -19.8394 807.141 -37.5176 777.324 -40.3696C730.456 -44.8573 682.716 -12.2481 669.941 32.975C664.478 52.3308 664.898 72.7876 665.36 92.8879C665.991 120.328 666.621 147.768 667.251 175.208C667.787 198.443 668.46 222.36 677.705 243.698C686.131 263.169 701.197 279.138 718.038 292.087C772.985 334.343 843.345 344.881 910.259 353.164C975.313 361.217 1052.82 364.939 1109.61 401.375C1121.3 408.872 1131.72 418.445 1138.88 430.42C1156.7 460.208 1151.26 499.465 1133.9 529.516C1116.02 560.49 1085.56 589.377 1054.92 607.705C1033.93 620.256 1014.82 635.533 999.95 655.749C969.062 697.753 981.7 767.49 1032.96 791.376C1066.88 807.187 1103.38 816.886 1138.14 830.674C1136.81 830.15 1110.35 853.973 1106.89 856.29C1095.31 864.091 1083.26 870.403 1070.12 875.122C1040.88 885.628 1009.6 888.469 978.895 891.562C957.641 893.712 936.156 894.834 915.27 898.902C863.317 909.02 830.391 943.003 827.764 998.911C825.716 1042.41 856.225 1094.22 912.959 1092.01C951.674 1090.5 990.578 1093.11 1029.37 1094.65C1044.94 1095.27 1060.42 1097.98 1081.33 1100.35C1073.09 1110.78 1068.86 1118.04 1062.88 1123.34C1034.56 1148.41 993.951 1147.73 958.303 1147.19C897.725 1146.29 797.759 1140.97 794.376 1225.28C792.012 1284.09 829.866 1345.22 895.508 1354.9C911.866 1357.31 928.676 1356.75 945.286 1357.21C953.512 1357.44 964.145 1355.42 972.087 1357.31C978.801 1358.89 985.546 1362.71 973.169 1365.34C870.556 1387.13 764.496 1394.67 659.761 1389.92C593.299 1387.07 526.858 1383.02 460.364 1381.81C417.71 1381.04 374.897 1382.47 333.429 1396.02C298.055 1407.57 254.927 1442.3 254.455 1483.35C254.371 1490.66 256.524 1497.8 258.941 1504.7C271.443 1540.44 291.268 1579.02 323.732 1600.44C362.185 1625.82 409.105 1630.6 453.43 1638.06C520.775 1649.42 586.764 1649.05 654.728 1649.55C710.989 1649.97 767.238 1650.93 823.499 1650.72C874.128 1650.53 924.757 1649.01 975.386 1648.21C999.256 1647.83 1023.12 1647.46 1046.99 1647.23C1068.55 1647.02 1090.24 1644.26 1110.42 1653.23C1105.67 1657.67 1099.94 1660.7 1093.81 1662.88Z" fill="#DFD5EB"/>
</g>
<defs>
<clipPath id="clip0_9268_39395">
<rect width="960" height="960" fill="white"/>
</clipPath>
</defs>
</svg>
